<?xml version="1.0" encoding="UTF-8"?>
<svg width="140px" height="122px" viewBox="0 0 140 122" version="1.1" xmlns="http://www.w3.org/2000/svg" xmlns:xlink="http://www.w3.org/1999/xlink">
    <!-- Generator: Sketch 49 (51002) - http://www.bohemiancoding.com/sketch -->
    <title>comment bubble</title>
    <desc>Created with Sketch.</desc>
    <defs></defs>
    <g id="Page-1" stroke="none" stroke-width="1" fill="none" fill-rule="evenodd">
        <g id="Desktop-HD" transform="translate(-397.000000, -185.000000)" fill="#000000">
            <g id="comment-bubble" transform="translate(397.000000, 185.000000)">
                <g id="noun_1359676_cc" fill-rule="nonzero">
                    <path d="M12.5359477,121.616661 C13.0584029,122.021866 13.7577339,122.113143 14.3660131,121.855521 L46.0993464,108.332351 C53.8733328,110.547859 61.9189624,111.655003 70,111.621275 C108.596078,111.621275 140,86.5776866 140,55.8014504 C140,25.0252142 108.596078,0 70,0 C31.4039216,0 0,25.043588 0,55.8198242 C0,68.6815349 5.61830065,81.2676374 15.848366,91.2079024 L11.8405229,119.779274 C11.6991302,120.475206 11.9699074,121.190629 12.5359477,121.616661 Z M4,55.9510773 C4,27.3029321 33.8103448,4 70.5,4 C107.189655,4 137,27.3029321 137,55.9510773 C137,84.5992224 107.189655,107.883849 70.5,107.883849 C62.5276235,107.906249 54.5939102,106.777932 46.9452414,104.533938 C46.5421916,104.388532 46.1008429,104.388532 45.6977931,104.533938 L16.346069,117 L20.0150345,90.7132675 C20.0972095,90.1216179 19.8849407,89.5271719 19.4463448,89.1206869 C9.48510345,79.8763972 4,68.0693342 4,55.9510773 Z" id="Shape" transform="translate(70.000000, 61.000000) scale(-1, 1) translate(-70.000000, -61.000000) "></path>
                </g>
                <text id="Hi-there!" font-family="Montserrat-Regular, Montserrat" font-size="25.9200001" font-weight="normal">
                    <tspan x="13.4663998" y="64">Hi there!</tspan>
                </text>
            </g>
        </g>
    </g>
</svg>